<svg xmlns="http://www.w3.org/2000/svg" viewBox="0 0 200 200"><defs><style>.cls-1{fill:#4b87c8;}.cls-2{fill:#fff;}</style></defs><g id="Layer_2" data-name="Layer 2"><g id="Layer_1-2" data-name="Layer 1"><circle class="cls-1" cx="100" cy="100" r="100"/><rect class="cls-2" x="45.45" y="124.42" width="17.03" height="26.58" rx="6.09"/><rect class="cls-2" x="75.96" y="120.63" width="17.03" height="30.37" rx="6.09"/><rect class="cls-2" x="106.47" y="109.24" width="17.03" height="41.76" rx="6.09"/><rect class="cls-2" x="136.97" y="90.26" width="17.03" height="60.74" rx="6.09"/><path class="cls-2" d="M149.48,52.77l3,21.73c.33,2.36-1.59,4.51-4.29,4.81l-.89.1c-2.7.29-5.15-1.38-5.48-3.74l-1.19-8.6c-.12.15-.26.3-.39.45-24,26.91-57.77,40.29-86.48,47.17a7.46,7.46,0,0,1-5.81.11,5.2,5.2,0,0,1-1.9-1.58,4.31,4.31,0,0,1-.75-3.67,5.22,5.22,0,0,1,2.45-3.08C63.23,103.31,88.05,96.21,112,79a145.69,145.69,0,0,0,22-19.41l-13.63,1.5c-2.71.3-5.16-1.37-5.48-3.73l-.11-.78c-.33-2.36,1.59-4.51,4.29-4.8L144,49C146.71,48.74,149.16,50.41,149.48,52.77Z"/></g></g></svg>