<svg width="32" height="32" viewBox="0 0 32 32" xmlns="http://www.w3.org/2000/svg"
    xmlns:xlink="http://www.w3.org/1999/xlink">
    <g fill="none" fill-rule="evenodd">
        <circle fill="#8C9EFF" cx="16" cy="16" r="16"></circle>
        <path
            d="M24 10s-2.293-1.795-5-2l-.244.488c2.447.6 3.57 1.457 4.744 2.512-2.023-1.033-4.02-2-7.5-2-3.48 0-5.476.967-7.5 2 1.174-1.055 2.51-2.008 4.744-2.511L13 8c-2.84.268-5 2-5 2s-2.56 3.713-3 11c2.58 2.976 6.5 3 6.5 3l.82-1.092A10.018 10.018 0 018 20c1.619 1.225 4.063 2.5 8 2.5 3.938 0 6.381-1.275 8-2.5a10.012 10.012 0 01-4.32 2.908L20.5 24s3.92-.024 6.5-3c-.44-7.287-3-11-3-11zm-11.25 9c-.967 0-1.75-.895-1.75-2s.783-2 1.75-2 1.75.895 1.75 2-.783 2-1.75 2zm6.5 0c-.967 0-1.75-.895-1.75-2s.783-2 1.75-2 1.75.895 1.75 2-.783 2-1.75 2z"
            fill="#FFF" fill-rule="nonzero"></path>
    </g>
</svg>