<svg width="32" height="32" viewBox="0 0 32 32" xmlns="http://www.w3.org/2000/svg"
    xmlns:xlink="http://www.w3.org/1999/xlink">
    <path
        d="M16 32C24.8366 32 32 24.8366 32 16C32 7.16344 24.8366 0 16 0C7.16344 0 0 7.16344 0 16C0 24.8366 7.16344 32 16 32Z"
        fill="url(#paint0_linear_4_40)"></path>
    <path
        d="M16 8.73925C18.3649 8.73925 18.6449 8.74828 19.5789 8.79089C20.4424 8.8303 20.9114 8.97455 21.2235 9.09584C21.6082 9.23781 21.9561 9.4642 22.2418 9.75835C22.536 10.044 22.7624 10.392 22.9043 10.7767C23.0256 11.0888 23.1699 11.5577 23.2093 12.4212C23.2519 13.3552 23.2609 13.6352 23.2609 16.0001C23.2609 18.365 23.2519 18.645 23.2093 19.579C23.1699 20.4426 23.0256 20.9115 22.9043 21.2236C22.757 21.6055 22.5313 21.9524 22.2418 22.2419C21.9523 22.5314 21.6054 22.7571 21.2235 22.9044C20.9114 23.0257 20.4424 23.17 19.5789 23.2094C18.6452 23.252 18.3651 23.261 16 23.261C13.635 23.261 13.355 23.252 12.4211 23.2094C11.5576 23.17 11.0887 23.0257 10.7766 22.9044C10.3919 22.7625 10.0439 22.5361 9.75825 22.2419C9.4641 21.9562 9.23771 21.6083 9.09573 21.2236C8.97444 20.9115 8.83016 20.4426 8.79078 19.579C8.74817 18.6452 8.73914 18.365 8.73914 16.0001C8.73914 13.6352 8.74817 13.3552 8.79078 12.4212C8.83019 11.5577 8.97444 11.0888 9.09573 10.7767C9.23772 10.392 9.46414 10.044 9.75832 9.75832C10.044 9.46417 10.392 9.23778 10.7767 9.0958C11.0887 8.97451 11.5577 8.83023 12.4212 8.79085C13.3551 8.74825 13.6352 8.73921 16.0001 8.73921L16 8.73925ZM16.0001 7.14343C13.5948 7.14343 13.2931 7.15363 12.3486 7.19673C11.4058 7.23976 10.7621 7.38946 10.1987 7.60841C9.60777 7.83079 9.07243 8.17941 8.63005 8.62994C8.17941 9.0723 7.8307 9.60764 7.60823 10.1986C7.38946 10.762 7.23976 11.4058 7.19691 12.3485C7.15363 13.293 7.14343 13.5947 7.14343 16C7.14343 18.4054 7.15363 18.7071 7.19691 19.6516C7.23994 20.5943 7.38963 21.2381 7.60858 21.8014C7.83097 22.3924 8.17959 22.9277 8.63012 23.3701C9.0725 23.8206 9.60784 24.1692 10.1988 24.3916C10.7622 24.6106 11.406 24.7603 12.3486 24.8033C13.2933 24.8464 13.5949 24.8566 16.0002 24.8566C18.4055 24.8566 18.7072 24.8464 19.6517 24.8033C20.5944 24.7603 21.2382 24.6106 21.8015 24.3916C22.3899 24.1641 22.9242 23.8161 23.3702 23.3701C23.8163 22.924 24.1642 22.3897 24.3918 21.8014C24.6107 21.238 24.7604 20.5942 24.8034 19.6516C24.8465 18.7069 24.8567 18.4053 24.8567 16C24.8567 13.5947 24.8465 13.293 24.8034 12.3485C24.7604 11.4058 24.6107 10.762 24.3918 10.1987C24.1694 9.6077 23.8208 9.07236 23.3702 8.62998C22.9278 8.17936 22.3925 7.83067 21.8014 7.60823C21.2381 7.38946 20.5943 7.23976 19.6516 7.19691C18.7071 7.15363 18.4054 7.14343 16 7.14343H16.0001Z"
        fill="white"></path>
    <path
        d="M16 11.452C15.1005 11.452 14.2212 11.7188 13.4733 12.2185C12.7254 12.7182 12.1425 13.4285 11.7982 14.2596C11.454 15.0906 11.3639 16.0051 11.5394 16.8873C11.7149 17.7695 12.1481 18.5799 12.7841 19.2159C13.4202 19.852 14.2305 20.2851 15.1127 20.4606C15.995 20.6361 16.9094 20.546 17.7405 20.2018C18.5715 19.8576 19.2818 19.2747 19.7815 18.5267C20.2813 17.7788 20.548 16.8995 20.548 16C20.548 14.7938 20.0688 13.637 19.2159 12.7841C18.363 11.9312 17.2062 11.452 16 11.452V11.452ZM16 18.9522C15.4161 18.9522 14.8454 18.779 14.3599 18.4546C13.8744 18.1302 13.496 17.6692 13.2726 17.1297C13.0491 16.5903 12.9907 15.9967 13.1046 15.4241C13.2185 14.8514 13.4997 14.3254 13.9126 13.9125C14.3254 13.4996 14.8515 13.2185 15.4241 13.1046C15.9968 12.9907 16.5904 13.0491 17.1298 13.2726C17.6692 13.496 18.1303 13.8744 18.4547 14.3599C18.7791 14.8454 18.9522 15.4161 18.9522 16C18.9522 16.783 18.6412 17.5339 18.0875 18.0875C17.5339 18.6412 16.783 18.9522 16 18.9522Z"
        fill="white"></path>
    <path
        d="M20.7277 12.3351C21.3146 12.3351 21.7905 11.8593 21.7905 11.2724C21.7905 10.6854 21.3146 10.2096 20.7277 10.2096C20.1407 10.2096 19.6649 10.6854 19.6649 11.2724C19.6649 11.8593 20.1407 12.3351 20.7277 12.3351Z"
        fill="white"></path>
    <defs>
        <linearGradient id="paint0_linear_4_40" x1="32" y1="9.53674e-07" x2="-9.53674e-07" y2="32"
            gradientUnits="userSpaceOnUse">
            <stop offset="0.145833" stop-color="#BF04A0"></stop>
            <stop offset="0.520833" stop-color="#E30018"></stop>
            <stop offset="0.84375" stop-color="#FEB01F"></stop>
        </linearGradient>
    </defs>
</svg>