<svg width="32" height="32" viewBox="0 0 32 32" xmlns="http://www.w3.org/2000/svg"
    xmlns:xlink="http://www.w3.org/1999/xlink">
    <g fill="none" fill-rule="evenodd">
        <circle fill="#EC5700" cx="16" cy="16" r="16"></circle>
        <path
            d="M25.086 15.843c0-1.189-.985-2.132-2.186-2.132a2.23 2.23 0 00-1.524.594c-1.505-1.049-3.566-1.73-5.86-1.818L16.52 7.91l3.261.681c.036.804.717 1.45 1.56 1.45.86 0 1.559-.68 1.559-1.52 0-.839-.7-1.52-1.56-1.52-.609 0-1.146.35-1.397.856l-3.638-.751a.39.39 0 00-.287.052.338.338 0 00-.161.245l-1.112 5.103c-2.33.07-4.426.751-5.95 1.817a2.256 2.256 0 01-.609 0c-1.218 0-2.186.961-2.186 2.132 0 .874.537 1.608 1.29 1.94-.036.21-.053.42-.053.647C7.237 22.326 11.16 25 16 25s8.764-2.656 8.764-5.96c0-.209-.018-.436-.054-.646A2.151 2.151 0 0026 16.437l-.914-.594zm-15.018 1.52c0-.839.699-1.52 1.56-1.52.86 0 1.558.681 1.558 1.52s-.698 1.52-1.559 1.52a1.53 1.53 0 01-1.559-1.52zm8.728 4.037c-1.075 1.048-3.119 1.118-3.71 1.118-.61 0-2.652-.087-3.71-1.118a.384.384 0 010-.56.408.408 0 01.574 0c.68.665 2.115.892 3.136.892 1.022 0 2.473-.227 3.136-.891a.408.408 0 01.574 0 .418.418 0 010 .559zm-.287-2.5c-.86 0-1.56-.68-1.56-1.52 0-.838.7-1.52 1.56-1.52.86 0 1.56.682 1.56 1.52 0 .822-.7 1.52-1.56 1.52z"
            fill="#FFF" fill-rule="nonzero"></path>
    </g>
</svg>