<svg width="32" height="32" viewBox="0 0 32 32" xmlns="http://www.w3.org/2000/svg"
    xmlns:xlink="http://www.w3.org/1999/xlink">
    <path
        d="M16 32C24.8366 32 32 24.8366 32 16C32 7.16344 24.8366 0 16 0C7.16344 0 0 7.16344 0 16C0 24.8366 7.16344 32 16 32Z"
        fill="#1B1A1A"></path>
    <path
        d="M16.354 8.0135C17.2265 8 18.094 8.008 18.9605 8C19.013 9.0205 19.38 10.06 20.127 10.7815C20.8725 11.521 21.927 11.8595 22.953 11.974V14.6585C21.9915 14.627 21.0255 14.427 20.153 14.013C19.773 13.841 19.419 13.6195 19.0725 13.393C19.068 15.341 19.0805 17.2865 19.06 19.2265C19.008 20.1585 18.7005 21.086 18.1585 21.854C17.2865 23.1325 15.773 23.966 14.2185 23.992C13.265 24.0465 12.3125 23.7865 11.5 23.3075C10.1535 22.5135 9.206 21.06 9.068 19.5C9.052 19.1665 9.0465 18.8335 9.06 18.508C9.18 17.2395 9.8075 16.026 10.7815 15.2005C11.8855 14.239 13.432 13.781 14.88 14.052C14.8935 15.0395 14.854 16.026 14.854 17.0135C14.1925 16.7995 13.4195 16.8595 12.8415 17.261C12.4195 17.5345 12.099 17.9535 11.932 18.4275C11.794 18.7655 11.8335 19.141 11.8415 19.5C12 20.594 13.052 21.5135 14.175 21.414C14.9195 21.406 15.633 20.974 16.021 20.3415C16.1465 20.12 16.287 19.8935 16.2945 19.633C16.36 18.4405 16.334 17.253 16.342 16.0605C16.3475 13.373 16.334 10.693 16.3545 8.014L16.354 8.0135Z"
        fill="white"></path>
</svg>